<svg xmlns="http://www.w3.org/2000/svg" width="75.468" height="72" viewBox="0 0 75.468 72">
  <g id="Group_246" data-name="Group 246" transform="translate(0 0)">
    <path id="Path_1115" data-name="Path 1115" d="M210.28,321c0-1.919,0-1.921,1.845-2.345l31.669-7.3c.878-.2.891-.2.878.721-.026,2.182.315,1.8-1.808,2.36q-15.812,4.2-31.632,8.376c-.937.249-.939.244-.945-.708C210.28,321.733,210.282,321.366,210.28,321Z" transform="translate(-171.486 -253.821)" fill="#07c28f"/>
    <path id="Path_1116" data-name="Path 1116" d="M75.468,12.435c0-2.291-.535-2.708-2.467-3.321a2.8,2.8,0,0,0-.284-.081c-2-.483-3.983-1.059-5.976-1.583Q53.149,3.862,39.567.242a6.981,6.981,0,0,0-3.756,0C24.633,3.264,13.423,6.166,2.234,9.16A2.577,2.577,0,0,0,0,11.61V61.385a1.437,1.437,0,0,0,1.253,1.173c2.876.738,5.741,1.513,8.61,2.275C18.533,67.143,27.23,69.4,35.9,71.74a6.782,6.782,0,0,0,3.612,0c10.036-2.64,20.054-5.35,30.1-7.957,1.566-.408,3.136-.83,4.686-1.282.941-.273,1.177-.583,1.168-1.557V59.549Zm-36.68,3.3c-.02-.6.172-.738.779-.631Q49.927,16.946,60.3,18.732c.749.131,1.5.275,2.249.378.867.118,1.4-.227,1.485-.922.083-.644-.336-1.118-1.148-1.262L50.272,14.712c-3.6-.629-7.195-1.269-10.8-1.873-.533-.089-.684-.3-.681-.812.017-2.767,0-5.547,0-8.32,0-.967,0-.976.933-.738q6.4,1.694,12.8,3.4l19.556,5.184c1.087.288,1.087.29,1.088,1.445V15.3c0,.908-.024,1.817,0,2.725.018.539-.184.692-.7.592-1.325-.255-2.657-.482-3.987-.712-.834-.144-1.409.184-1.537.849s.291,1.148,1.157,1.308c1.476.273,2.952.553,4.428.788.482.077.638.288.644.775.018,1.873.037,1.865-1.858,1.623q-14.966-1.9-29.937-3.8c-.631-.079-1.266-.159-1.9-.208-.509-.039-.738-.244-.714-.786C38.821,17.547,38.818,16.638,38.788,15.732ZM3.136,11.61Q16.548,8.09,29.948,4.524c1.944-.515,3.891-1.018,5.824-1.568.672-.184.858-.02.838.66-.041,1.4-.013,2.8-.013,4.2,0,1.291-.048,2.6.018,3.9.041.8-.21,1.094-1.013,1.229-6.143,1.033-12.276,2.12-18.414,3.186-4.71.819-9.424,1.625-14.132,2.463-.636.114-.88.011-.862-.7.044-1.692.05-3.387,0-5.077C2.17,12.079,2.443,11.795,3.136,11.61ZM36.6,17.069c0,2.112,0,2.083-2.1,2.343-6.062.753-12.121,1.531-18.179,2.3-4.428.553-8.855,1.107-13.283,1.686-.673.089-.845-.089-.832-.751.035-1.675,0-1.675,1.673-1.965q15.951-2.767,31.9-5.562c.677-.12.9.028.841.7C36.567,16.232,36.6,16.652,36.6,17.069ZM3.832,30c.95-.081,1.9-.149,2.854-.245.5-.05.646.175.64.635-.028,2.31.244,1.8-1.76,1.935-.268.018-.537,0-.806,0v.105c-.66,0-1.323-.013-1.983,0-.4,0-.553-.138-.574-.553C2.1,30.146,2.09,30.146,3.832,30ZM64.24,32.12c-.539,0-.756-.2-.723-.738a14.066,14.066,0,0,0,0-1.476c-.015-.461.184-.583.631-.542q4.14.369,8.283.684c.529.041.782.194.76.79-.065,1.834.258,1.587-1.605,1.555-1.077-.02-2.155,0-3.234,0V32.11C66.983,32.112,65.613,32.1,64.24,32.12Zm8.879-4.406c-.063.273-.424.157-.659.137q-4.145-.339-8.289-.7c-.172-.015-.341-.033-.513-.044-1.773-.12-2.354.428-2.358,2.23v2.8c.009,1.576.528,2.1,2.123,2.158,2.968.109,5.935.236,8.9.315.651.017.873.2.871.886q-.039,9.387,0,18.773c0,.622-.207.83-.784.963q-16.283,3.734-32.565,7.5c-1.059.244-1.061.245-1.061-.817V41.528a5.377,5.377,0,0,0-.031-.88,1.01,1.01,0,0,0-1.046-.943,1.023,1.023,0,0,0-1.092.972,5.363,5.363,0,0,0-.026.808V62.1c0,.869,0,.869-.876.67L12.84,57.5c-.216-.05-.43-.1-.648-.137a1.074,1.074,0,0,0-1.321.762,1.057,1.057,0,0,0,.8,1.354c1.068.28,2.147.511,3.223.76q10.221,2.354,20.437,4.714c1.421.33,1.247.1,1.262,1.625V68.27c0,.937,0,.939-.952.69q-6.332-1.671-12.663-3.347-9.85-2.6-19.7-5.214c-1.061-.282-1.061-.284-1.061-1.389,0-1.7,0-1.7,1.635-1.319.86.2,1.718.41,2.583.592A1.139,1.139,0,0,0,7.94,57.5c.153-.64-.227-1.16-1.022-1.358q-2.029-.5-4.086-.95a.676.676,0,0,1-.629-.79q.024-9.536,0-19.068c0-.579.231-.7.738-.707,1.544-.037,3.088-.109,4.634-.172,1.4-.059,1.95-.62,1.965-2.009.011-1.031.015-2.063,0-3.092a1.683,1.683,0,0,0-2.05-1.884c-1.516.116-3.035.234-4.548.389-.542.055-.756-.077-.738-.657.074-1.66-.31-1.446,1.43-1.66q12.813-1.633,25.627-3.262c2.19-.279,4.383-.528,6.57-.821.576-.076.812.059.779.672-.041.76-.033,1.522,0,2.282.022.507-.184.69-.673.727-1.614.118-3.227.268-4.841.406a1.692,1.692,0,0,0-1.815,1.935c-.013,1.4-.017,2.8,0,4.2.015,1.339.622,1.922,1.967,1.889,1.57-.039,3.136-.09,4.708-.166.487-.024.675.151.648.622a6.106,6.106,0,0,0,0,.662c.033.826.43,1.278,1.107,1.269s1.048-.461,1.077-1.3c.009-.245,0-.491,0-.738V22.5c0-1.138,0-1.148,1.133-1q7.485.946,14.967,1.9l17.229,2.184c.349.046.873-.066.989.314a3.616,3.616,0,0,1,.015,1.813Zm-41.64.622c0-.417.146-.638.583-.67,1.345-.1,2.69-.22,4.035-.338.349-.03.5.118.5.459v2.871c0,.428-.21.553-.6.537-.662-.015-1.325,0-1.985,0v.146c-.638,0-1.277-.022-1.911,0-.439.02-.633-.131-.625-.581.02-.8.018-1.623,0-2.424Z" transform="translate(0 0.015)" fill="#07c28f"/>
    <path id="Path_1117" data-name="Path 1117" d="M141.118,156.5a1.09,1.09,0,0,1-2.181.03,1.05,1.05,0,0,1,1.037-1.087,1.063,1.063,0,0,1,1.144,1.057Z" transform="translate(-113.305 -126.763)" fill="#07c28f"/>
    <path id="Path_1118" data-name="Path 1118" d="M61.833,161.141a1.077,1.077,0,0,1-1.061,1.081,1.046,1.046,0,0,1-1.107-1.024,1.09,1.09,0,0,1,1.083-1.138A1.125,1.125,0,0,1,61.833,161.141Z" transform="translate(-48.657 -130.528)" fill="#07c28f"/>
    <path id="Path_1119" data-name="Path 1119" d="M314.247,160.069a1.107,1.107,0,0,1,.978,1.17,1.07,1.07,0,0,1-1.216.983,1.059,1.059,0,0,1-.935-1.184A1.107,1.107,0,0,1,314.247,160.069Z" transform="translate(-255.309 -130.533)" fill="#07c28f"/>
    <path id="Path_1120" data-name="Path 1120" d="M243.842,141.442a1.77,1.77,0,0,0-1.891-2.046q-4.876-.411-9.754-.793c-1.714-.131-2.317.458-2.317,2.2v29.219a1.714,1.714,0,0,0,2.278,1.893q4.992-.922,9.975-1.891a1.787,1.787,0,0,0,1.708-2.083Q243.849,154.688,243.842,141.442Zm-2.2,25.741c0,.524-.173.725-.683.817q-4.059.738-8.093,1.548c-.625.125-.8-.017-.793-.662.024-4.562.013-9.127.013-13.689,0-4.49.013-8.979-.015-13.467,0-.7.142-.943.9-.869,2.634.264,5.276.47,7.918.666.553.041.758.2.756.782Q241.621,154.745,241.645,167.183Z" transform="translate(-187.47 -113.015)" fill="#07c28f"/>
    <path id="Path_1121" data-name="Path 1121" d="M88.687,144.04a1.542,1.542,0,0,0-1.788-1.605c-2.029.138-4.059.306-6.088.491a1.639,1.639,0,0,0-1.647,1.79q-.036,1.876,0,3.751a1.661,1.661,0,0,0,1.908,1.821c.956-.018,1.909-.079,2.865-.122v.028c1.053-.048,2.107-.083,3.158-.151a1.537,1.537,0,0,0,1.585-1.592Q88.746,146.246,88.687,144.04Zm-2.76,3.845c-.71.022-1.421.059-2.131.09v.05c-.589,0-1.177-.022-1.764,0-.463.024-.688-.114-.666-.614.026-.611.015-1.225,0-1.845a.482.482,0,0,1,.526-.553c1.345-.1,2.688-.2,4.031-.319.424-.037.576.137.568.541-.011.686-.015,1.374,0,2.061C86.51,147.726,86.314,147.885,85.927,147.885Z" transform="translate(-64.545 -116.15)" fill="#07c28f"/>
  </g>
</svg>
