<svg id="Group_247" data-name="Group 247" xmlns="http://www.w3.org/2000/svg" width="48.8" height="72" viewBox="0 0 48.8 72">
  <path id="Path_1135" data-name="Path 1135" d="M123.171,662.368c-1.077-2.054-2.146-4.11-3.246-6.153-.224-.414-.271-.693.145-1.007a14.515,14.515,0,0,0,1.2-1.081,1.178,1.178,0,0,0,.188-1.844q-3.24-4.469-6.487-8.929c-.188-.265-.391-.594-.737-.607-.725-.028-.752-.447-.752-1.024q0-6.536-.053-13.076c0-.359.177-.438.434-.513.876-.257,1.757-.5,2.631-.778.729-.235,1.066-.778.9-1.364a1.1,1.1,0,0,0-1.472-.686c-.767.209-1.52.476-2.293.663-.314.077-.727.472-.977-.064-.235-.5.31-.564.547-.733,1.171-.863,2.366-1.691,3.554-2.524a1.149,1.149,0,0,0,.6-1.178,1.06,1.06,0,0,0-1.748-.618c-1.295.885-2.6,1.768-3.838,2.727-.575.443-.752-.03-1.09-.261-.365-.252-.376-.489-.145-.865,1.034-1.674,2.043-3.366,3.05-5.055.423-.71.34-1.316-.188-1.671-.564-.365-1.191-.156-1.633.564-.9,1.483-1.789,2.971-2.684,4.456-.616,1.022-.616,1.022-1.731.7-1.3-.376-1.3-.376-1.3-1.783,0-2.156.009-4.313,0-6.469,0-.855-.534-1.376-1.24-1.252s-.889.6-.889,1.235v6.749c0,1.173,0,1.171-1.1,1.455a2.2,2.2,0,0,0-.6.188c-.584.361-.846.062-1.128-.43-.966-1.659-1.964-3.3-2.969-4.939a1.08,1.08,0,0,0-1.81-.259,1.153,1.153,0,0,0,.028,1.432c1.009,1.663,1.973,3.353,3.024,4.988.376.59.023.793-.289,1.146-.348.391-.594.271-.94.019-1.233-.895-2.481-1.767-3.732-2.631a1.105,1.105,0,0,0-1.622.115,1.089,1.089,0,0,0,.391,1.624c1.255.9,2.526,1.784,3.785,2.68.188.141.494.248.336.6-.171.376-.455.222-.72.145-.831-.242-1.658-.5-2.494-.731-.795-.222-1.357.036-1.528.671s.173,1.146.955,1.387q1.278.393,2.562.752a.5.5,0,0,1,.432.592c-.188,3.3-.041,6.606-.083,9.91v1.757c0,.162.081.4-.231.41a3.13,3.13,0,0,1-2.067-1.52q-3.392-11.419-6.739-22.849a4.432,4.432,0,0,1-.278-1.156c-.028-1.97-.009-3.937-.019-5.907,0-.357.135-.509.5-.5.491.015.985.019,1.475,0a1.02,1.02,0,0,0,1.077-1.06q.048-1.692,0-3.383a1.036,1.036,0,0,0-1.128-1.084,6.217,6.217,0,0,0-.7,0c-.419.03-.624-.124-.549-.564.036-.207.049-.419.073-.628l.752-6.281a1.137,1.137,0,0,0-.506-1.22,1.121,1.121,0,0,0-1.364.188c-.425.338-.831.613-1.227.94-.314.261-.459.188-.583-.188-.233-.712-.513-1.408-.752-2.118-.188-.543-.44-1.007-1.081-1.049s-.94.421-1.193.921c-.434.857-.9,1.7-1.316,2.563-.2.413-.376.521-.771.188-.492-.432-1.036-.8-1.547-1.216a1.172,1.172,0,0,0-1.421-.224,1.112,1.112,0,0,0-.472,1.291c.276,1.971.532,3.947.818,5.916.207,1.432.222,1.428-1.207,1.487-.776.032-1.169.344-1.2,1.086q-.059,1.691,0,3.383c.026.707.425,1.037,1.141,1.067a6.793,6.793,0,0,0,1.128,0c.646-.081.8.2.771.8-.043.842-.026,1.691,0,2.531a4.445,4.445,0,0,0,3.313,4.3c.575.156.7.442.763.966q.8,6.766,1.646,13.531c.1.823.564,1.255,1.188,1.186.667-.077,1.026-.628.925-1.475-.293-2.443-.6-4.886-.9-7.329-.248-2.022-.5-4.044-.737-6.068-.024-.209-.137-.468.188-.59a.881.881,0,0,1,1.214.6q3.326,11.323,6.655,22.648a.992.992,0,0,1-.188,1.024c-1.316,1.616-2.607,3.255-3.913,4.886-.107.132-.167.35-.447.325q-.226-1.838-.451-3.683c-.257-2.114-.5-4.232-.78-6.347a1.055,1.055,0,0,0-1.246-1.026,1.082,1.082,0,0,0-.866,1.315q.7,5.824,1.426,11.652a1.368,1.368,0,0,1-.316,1.156c-.812.972-1.592,1.966-2.375,2.962A1.176,1.176,0,0,0,82.9,654a35.479,35.479,0,0,0,2.6,3.14,5.846,5.846,0,0,1,1.924,5.4,2.623,2.623,0,0,0,0,.421,1.353,1.353,0,0,0,.752,1.453H122.9C123.656,663.631,123.7,663.366,123.171,662.368ZM79.759,598.777c.816.59,1.423.472,1.9-.4.376-.677.712-1.364,1.1-2.118a6.367,6.367,0,0,1,.643,1.534c.438,1.169,1.079,1.37,2.082.639.165-.12.335-.235.665-.464-.2,1.763-.387,3.341-.564,4.92-.039.357-.244.453-.573.453H80.022c-.314,0-.526-.066-.575-.445-.2-1.552-.425-3.1-.652-4.736a2.83,2.83,0,0,1,.958.622Zm4.531,15.762c-.652-.038-1.316,0-1.962-.013a2.337,2.337,0,0,1-2.4-2.327c-.047-.94,0-1.868-.019-2.8,0-.389.148-.536.539-.532,1.316.015,2.618.023,3.928,0,.487,0,.59.2.577.63-.024.752,0,1.5,0,2.244,0,.7-.024,1.4.009,2.1.011.5-.132.729-.675.7Zm-1.836-7.8c-1.614,0-3.231-.011-4.845,0-.455,0-.752-.03-.737-.622,0-.53.188-.673.7-.669q4.886.028,9.758,0c.507,0,.693.124.7.663,0,.584-.265.633-.729.63-1.622-.013-3.234,0-4.849,0Zm22.515,16.493c2.905.024,5.788,2.283,6.085,4.837a8.662,8.662,0,0,0-6.085-2.537,8.779,8.779,0,0,0-6.138,2.511c.359-2.6,3.278-4.837,6.132-4.811Zm-6.414,15.786a8.869,8.869,0,0,0,4.708,2.657,11.181,11.181,0,0,0,1.316.169c.829.056,1.387-.353,1.421-1.015.032-.624-.444-1.092-1.255-1.128a6.3,6.3,0,0,1-3.977-1.549,5.665,5.665,0,0,1-1.908-6.115,6.414,6.414,0,0,1,12.492,2.116c.026,2.6-.009,5.2.017,7.8,0,.564-.188.72-.727.718q-4.954-.028-9.906,0a5.286,5.286,0,0,1-1.973-.669.346.346,0,0,1-.214-.336c0-.825,0-1.635,0-2.657Zm-.12,23.266c-1.381-.015-2.763,0-4.146,0-1.334,0-2.671-.021-4,0-.524.011-.7-.126-.752-.7a4.792,4.792,0,0,1,1.186-3.719c1.441-1.721,2.721-3.571,4.073-5.375a1.338,1.338,0,0,0,.389-1.086,1.022,1.022,0,0,0-.752-.838,1.066,1.066,0,0,0-1.218.477q-1.522,2.02-3.037,4.046c-.464.618-.94,1.231-1.387,1.859-.218.3-.376.427-.673.051q-1.419-1.789-2.89-3.535c-.254-.3-.188-.5.028-.78q4.065-5.074,8.109-10.158a.624.624,0,0,1,.891-.212q1.748.821,3.528,1.575c.451.188.579.363.22.786-.455.534-.861,1.111-1.269,1.691a1.1,1.1,0,0,0,.122,1.62,1.076,1.076,0,0,0,1.581-.346q.906-1.163,1.77-2.36a.973.973,0,0,1,.872-.46c3.326.013,6.651,0,9.977,0,.179,0,.413-.077.519.105s-.1.338-.2.477q-6.05,8.243-12.1,16.48a.9.9,0,0,1-.836.389Zm21.612,0c-2.952-.013-5.9,0-8.854,0h-8.784c-.2,0-.472.113-.579-.1s.143-.376.261-.532q5.694-7.76,11.393-15.518c.316-.432.489-.521.844-.024q2.3,3.234,4.666,6.422c.3.4.216.62-.122.921-1.173,1.043-2.325,2.109-3.481,3.17-.7.646-.8,1.229-.314,1.75.453.479,1.084.421,1.731-.156,1.19-1.066,1.191-1.066,1.928.329.564,1.056,1.1,2.122,1.676,3.167.263.459.132.562-.368.56Z" transform="translate(-74.723 -592.416)" fill="#07c28f"/>
  <path id="Path_1136" data-name="Path 1136" d="M217.207,797.669c-.631-.147-1.389-.3-2.131-.5-.479-.132-.648,0-.615.491a6.1,6.1,0,0,1,0,.981,1.041,1.041,0,0,1-1.105,1.03,1,1,0,0,1-1.007-1.043v-.071c-.094-1.5-.094-1.5-1.6-1.158-.412.094-.818.214-1.233.267a1.05,1.05,0,0,1-.451-2.05c1.383-.351,2.776-.658,4.166-.974a.969.969,0,0,1,.415.013c1.346.308,2.693.605,4.031.94a1.017,1.017,0,0,1,.831,1.2C218.429,797.36,217.944,797.7,217.207,797.669Z" transform="translate(-183.175 -756.621)" fill="#07c28f"/>
</svg>
