<svg xmlns="http://www.w3.org/2000/svg" width="81.918" height="72" viewBox="0 0 81.918 72">
  <g id="Group_239" data-name="Group 239" transform="translate(0)">
    <path id="Path_1137" data-name="Path 1137" d="M198.669,3701.026a1.593,1.593,0,1,1,1.618-1.546A1.612,1.612,0,0,1,198.669,3701.026Z" transform="translate(-157.732 -3683.415)" fill="#07c28f"/>
    <path id="Path_1138" data-name="Path 1138" d="M89.069,3664.5a39.106,39.106,0,0,1-3.722-13.08c-.2-2.553-.058-5.116-.073-7.673a3.553,3.553,0,0,0-.477-1.821c-1.984-3.44-3.942-6.893-5.918-10.339-.926-1.614-2.3-1.621-3.22-.015-1.924,3.375-3.848,6.764-5.8,10.129a3.414,3.414,0,0,0-.586,2.266c.094.695-.214.838-.855.83-2.587-.032-5.174-.017-7.759-.013-1.182,0-1.924.6-1.939,1.556s.727,1.636,1.924,1.64h6.478c2.159,0,2.138,0,2.138,2.17,0,1.028,0,1.028-1.041,1.028h-28.3c-1.36,0-1.36,0-1.36-1.345,0-1.854,0-1.854,1.894-1.854,2.32,0,4.639.013,6.957,0a1.6,1.6,0,1,0,0-3.188H39.726c-1.323,0-1.172.139-1.165-1.131a3.051,3.051,0,0,0-.4-1.6c-2.018-3.513-4.019-7.036-6.038-10.549-.868-1.511-2.266-1.5-3.141.017-1.353,2.352-2.553,4.819-4.079,7.055a13.365,13.365,0,0,0-2.38,9.014A26.863,26.863,0,0,1,21.487,3657a58.532,58.532,0,0,1-7.962,16.836,3.1,3.1,0,0,0-.577,1.862c.028,1.864,0,3.73.013,5.6a1.643,1.643,0,0,0,1.864,1.873c1.68.013,3.361,0,5.039,0,1.09,0,1.09,0,1.09,1.056v16.236c0,1.283.594,1.9,1.839,1.9q7.761.013,15.517,0a1.629,1.629,0,0,0,1.834-1.824c.015-1.307.038-2.615-.011-3.919-.024-.642.214-.838.812-.981a14.277,14.277,0,0,0,10.97-10.4c.214-.676-.017-1.646.588-1.976.56-.3,1.411-.032,2.121-.111.744-.083.981.25,1.039.916a6.119,6.119,0,0,0,.269,1.246,14.218,14.218,0,0,0,11.015,10.339c.53.124.753.3.731.885-.047,1.253-.017,2.506-.013,3.759,0,1.524.543,2.063,2.078,2.065H84.71c1.644,0,2.159-.513,2.159-2.138v-15.835c0-1.371-.162-1.2,1.172-1.21,1.546-.011,3.094-.045,4.637.013a2.147,2.147,0,0,0,2.187-1.135V3674.7a65.636,65.636,0,0,1-5.8-10.2Zm-3.731-.273a83,83,0,0,0,4.943,9.347h-4.49c-.366,0-.526-.122-.526-.5.009-2.929.006-5.871.077-8.833Zm-11.4-23.18q1.533-2.657,3.047-5.33c.231-.409.389-.327.586.023q1.5,2.634,3.01,5.259c.242.428.214.609-.331.6-1.009-.023-2.02,0-3.032,0s-1.967-.013-2.95,0C73.8,3641.6,73.7,3641.458,73.937,3641.042Zm-1.471,4.3c-.013-.415.148-.558.558-.556q4.237.015,8.468,0c.387,0,.556.1.586.532.19,2.67.2,2.67-2.442,2.67h-2.4c-1.358,0-2.715-.018-4.073,0-.494,0-.738-.107-.706-.659C72.5,3646.672,72.488,3646,72.466,3645.34Zm.791,5.832q4,.052,7.994,0c.688-.01.838.214.832.855-.028,3.463-.013,6.927-.013,10.393s-.017,6.874.013,10.312c0,.654-.165.866-.84.855q-4-.056-7.994,0c-.658.011-.791-.214-.789-.823q.026-10.392,0-20.785c0-.607.148-.814.789-.806Zm-34.716,3.992c0-.654.214-.791.821-.789q14.555.023,29.108,0c.614,0,.817.154.815.8q-.034,8.8,0,17.591c0,.684-.214.836-.855.833-4.851-.025-9.7-.015-14.553-.015s-9.649,0-14.474.015c-.654,0-.855-.165-.855-.84Q38.58,3663.961,38.541,3655.164Zm-3.173,17.615c0,.616-.154.825-.8.817q-4-.052-8,0c-.686,0-.836-.214-.832-.866.03-3.463.013-6.927.013-10.393s.017-6.874-.013-10.312c0-.654.162-.855.84-.855q4,.058,7.994,0c.656,0,.791.214.789.825Q35.341,3662.386,35.369,3672.778Zm-8.146-31.736q1.533-2.657,3.047-5.33c.229-.4.387-.33.586.021q1.5,2.637,3.01,5.26c.239.415.214.611-.329.6-1.011-.023-2.02,0-3.032,0s-1.967-.013-2.95,0C27.086,3641.6,26.981,3641.461,27.223,3641.042Zm-1.319,3.925c.46-.53,1.5-.163,2.294-.171,2.157-.026,4.314,0,6.469-.02.5,0,.729.128.7.669a16.833,16.833,0,0,0,0,1.924c.026.5-.177.642-.641.631-1.383-.021-2.779,0-4.154,0s-2.769-.015-4.154,0c-.468,0-.691-.12-.641-.626C25.814,3646.55,25.429,3645.515,25.9,3644.968Zm-8.124,28.221c1.749-2.879,3.292-5.864,4.77-8.932v3.141c0,1.807-.019,3.615.011,5.422,0,.571-.124.806-.746.782-1.221-.047-2.444,0-3.667-.019-.233-.006-.637.056-.359-.4Zm19.175,23.454a16.833,16.833,0,0,0,0,1.924c.026.5-.18.642-.641.631q-5.753-.019-11.506,0c-.466,0-.691-.12-.641-.626.062-.816-.325-1.852.152-2.4s1.507-.154,2.294-.173c1.332-.03,2.664,0,4,0,1.89,0,3.782.013,5.674-.011.49-.026.716.107.682.647ZM24.142,3690.2c-.028-.509.19-.626.656-.626q5.753.021,11.506,0c.475,0,.676.132.641.641a16.842,16.842,0,0,0,0,1.924c.034.543-.195.673-.7.667-1.924-.023-3.835,0-5.753,0s-3.782-.015-5.674,0c-.509,0-.723-.137-.691-.673a16.839,16.839,0,0,0,.019-1.939Zm12.028-3.808c-1.89-.03-3.782-.01-5.672-.01s-3.782-.015-5.674,0c-.52,0-.716-.154-.684-.68a13.5,13.5,0,0,0,0-1.836c-.043-.588.214-.7.744-.7q5.674.028,11.348,0c.554,0,.763.158.723.72a11.221,11.221,0,0,0,0,1.758c.066.635-.21.752-.776.744Zm12.787-2.6c-.509,3.788-4.357,7.851-8.186,8.637-.545.111-.641-.08-.624-.558.024-1.332,0-2.664,0-4s.015-2.666,0-4c0-.481.088-.721.641-.714,2.566.026,5.116.021,7.675,0,.513,0,.562.19.5.622Zm18.1,8.641a11.391,11.391,0,0,1-8.193-8.552c-.081-.485-.041-.718.556-.712,2.531.03,5.063.026,7.594,0,.552,0,.667.214.658.708-.026,1.357,0,2.717,0,4.077s-.017,2.664,0,4c.019.5-.165.566-.607.477Zm16.614,4.2a16.9,16.9,0,0,0,0,1.924c.026.5-.177.641-.641.63q-5.753-.019-11.506,0c-.466,0-.691-.117-.652-.624.06-.819-.325-1.852.15-2.4s1.507-.154,2.294-.173c1.332-.03,2.664,0,4,0,1.892,0,3.782.013,5.674-.011.5-.023.727.107.695.648Zm-.7-3.848c-1.924-.024-3.835,0-5.753,0s-3.784-.015-5.674,0c-.511,0-.723-.139-.691-.673a16.363,16.363,0,0,0,0-1.924c-.028-.509.192-.626.656-.626q5.757.021,11.509,0c.472,0,.676.132.641.642a16.833,16.833,0,0,0,0,1.924c.049.528-.18.659-.68.652Zm-1.745-6.414H77.24c-1.836,0-3.675-.036-5.512.02-.735.021-.93-.231-.868-.909a14.172,14.172,0,0,0,0-1.757c-.015-.417.148-.558.558-.556q5.832.013,11.667,0c.387,0,.556.1.586.532.2,2.671.207,2.671-2.435,2.671Zm8.306-6.4H17.245c-1.086,0-1.086,0-1.086-1.069,0-.507.028-1.016,0-1.52s.184-.673.654-.622a4.608,4.608,0,0,0,.479,0H90.547c1.257,0,1.12-.135,1.127,1.1,0,2.114,0,2.114-2.132,2.114Z" transform="translate(-12.947 -3630.367)" fill="#07c28f"/>
    <path id="Path_1139" data-name="Path 1139" d="M89.37,3745.919a1.593,1.593,0,1,1,1.653-1.509A1.614,1.614,0,0,1,89.37,3745.919Z" transform="translate(-71.828 -3718.711)" fill="#07c28f"/>
    <path id="Path_1140" data-name="Path 1140" d="M91.052,3774.229a1.591,1.591,0,1,1-1.593-1.569A1.61,1.61,0,0,1,91.052,3774.229Z" transform="translate(-71.852 -3742.239)" fill="#07c28f"/>
    <path id="Path_1141" data-name="Path 1141" d="M91.051,3804.19a1.591,1.591,0,1,1-1.582-1.58A1.61,1.61,0,0,1,91.051,3804.19Z" transform="translate(-71.852 -3765.786)" fill="#07c28f"/>
    <path id="Path_1142" data-name="Path 1142" d="M307.91,3745.917a1.593,1.593,0,1,1,1.629-1.533A1.61,1.61,0,0,1,307.91,3745.917Z" transform="translate(-243.626 -3718.709)" fill="#07c28f"/>
    <path id="Path_1143" data-name="Path 1143" d="M307.939,3775.845a1.593,1.593,0,1,1,1.6-1.567A1.593,1.593,0,0,1,307.939,3775.845Z" transform="translate(-243.623 -3742.238)" fill="#07c28f"/>
    <path id="Path_1144" data-name="Path 1144" d="M309.551,3804.2a1.591,1.591,0,1,1-1.565-1.6A1.612,1.612,0,0,1,309.551,3804.2Z" transform="translate(-243.638 -3765.777)" fill="#07c28f"/>
  </g>
</svg>
