<svg xmlns="http://www.w3.org/2000/svg" width="71.988" height="72" viewBox="0 0 71.988 72">
  <g id="Group_243" data-name="Group 243" transform="translate(0)">
    <path id="Path_1112" data-name="Path 1112" d="M395.36,1886.029v-7.909a.98.98,0,0,0,.133.015v7.873Z" transform="translate(-323.505 -1835.245)" fill="#07c28f"/>
    <path id="Path_1113" data-name="Path 1113" d="M84.857,1694.839a9.848,9.848,0,0,0-.054-2.024c-.062-.458-.419-.652-.77-.844-1.09-.594-2.167-1.212-3.279-1.762a1,1,0,0,1-.637-1.1,18.037,18.037,0,0,0,0-1.965,3.594,3.594,0,0,0-2.764-3.469,3.54,3.54,0,0,0-4.017,1.843c-.2.363-.349.485-.74.259q-1.4-.8-2.841-1.537a.752.752,0,0,1-.434-.789c.021-.725.013-1.451,0-2.178a3.614,3.614,0,0,0-2.773-3.6,3.541,3.541,0,0,0-4.074,2c-.188.4-.34.445-.718.235-1.657-.921-3.324-1.828-5.006-2.7a1.057,1.057,0,0,1-.639-1.1c.021-3.935,0-7.869.015-11.8a26.539,26.539,0,0,0-1.836-9.667c-.851-2.223-2.067-4.025-4.51-4.7H47.954a1.758,1.758,0,0,1-.3.154,5.292,5.292,0,0,0-3.476,3.038,24.892,24.892,0,0,0-2.416,10.457q-.028,6.291,0,12.589a.963.963,0,0,1-.564,1c-1.691.878-3.347,1.785-5,2.709-.419.233-.59.22-.817-.254a3.54,3.54,0,0,0-4.032-1.96,3.6,3.6,0,0,0-2.788,3.523c-.013.752-.021,1.5,0,2.255a.783.783,0,0,1-.477.832c-.94.477-1.864.985-2.779,1.5-.357.2-.522.2-.74-.212a3.511,3.511,0,0,0-4.061-1.879,3.6,3.6,0,0,0-2.745,3.559c-.019.678-.028,1.36,0,2.039a.836.836,0,0,1-.536.872c-1.142.594-2.255,1.227-3.4,1.832a1.29,1.29,0,0,0-.844,1.127c-.017,2.443-.036,4.872,0,7.309a1.165,1.165,0,0,0,1.612,1.054c.246-.073.485-.173.725-.263l25.474-9.559c1.013-.376.979-.515.977.7v8.643a5.922,5.922,0,0,0,.066,1.05c.321,1.725.637,3.454,1.007,5.169a.973.973,0,0,1-.532,1.242c-3.448,2.035-6.866,4.122-10.316,6.158a1.884,1.884,0,0,0-1.047,1.879c.053,1.287,0,2.576.015,3.865,0,1.233.564,1.691,1.783,1.477q5.988-1,11.982-2a.887.887,0,0,1,1,.4,3.926,3.926,0,0,0,6.424.038.994.994,0,0,1,1.127-.434c3.991.68,7.986,1.344,11.981,2.016,1.077.188,1.672-.3,1.691-1.385.013-1.336-.034-2.674.017-4.006a1.9,1.9,0,0,0-1.069-1.879c-3.429-2.024-6.825-4.1-10.256-6.12a1.042,1.042,0,0,1-.564-1.293c.436-2.529,1.188-5.006,1.092-7.625-.09-2.5,0-5.013-.032-7.516,0-.678.177-.718.752-.5,4.322,1.637,8.643,3.247,12.95,4.869l13.153,4.936c.975.365,1.428.2,1.841-.633C84.938,1698.765,84.84,1696.8,84.857,1694.839Zm-53.843-13.955a1.088,1.088,0,0,1,.983-.872,1.111,1.111,0,0,1,1.186.564c.246.442.276.831-.291,1.086a11.01,11.01,0,0,0-1.295.7c-.485.3-.723.265-.645-.376a2.322,2.322,0,0,0,0-.28h-.019A5.293,5.293,0,0,1,31.014,1680.884Zm-10.857,6.528a2.744,2.744,0,0,1,.1-.62,1.171,1.171,0,0,1,1.93-.489c.5.47.453.909-.145,1.236q-.522.287-1.045.564C20.15,1688.56,20.15,1688.56,20.157,1687.412Zm20.989,1.567q-12.571,4.686-25.124,9.418c-.564.212-.682.085-.667-.477q.048-1.691,0-3.382a.952.952,0,0,1,.586-.985q9.245-4.985,18.476-10,3.273-1.776,6.548-3.546c.778-.421.782-.417.782.434v3.8c0,1.266-.017,2.531,0,3.8A.814.814,0,0,1,41.146,1688.979Zm2.993,28.561q-5.056.821-10.105,1.691c-.532.09-.752-.053-.688-.6.026-.255,0-.515,0-.939-.263-.789.244-1.25,1.022-1.691,2.856-1.654,5.676-3.367,8.493-5.073.5-.3.645-.233.752.331q.49,2.764,1.065,5.513c.1.494-.028.692-.541.774Zm8.681-11.349c-.712,3.82-1.464,7.633-2.2,11.447l-.011.069c-.235,1.238-.782,1.83-1.691,1.819-.87,0-1.405-.588-1.638-1.787q-.643-3.309-1.278-6.618c-.586-3.057-1.167-6.116-1.763-9.171a6.013,6.013,0,0,1-.092-1.188v-36.607a23.112,23.112,0,0,1,2.208-9.994,2.692,2.692,0,0,1,5.079-.013,22.421,22.421,0,0,1,2.287,9.771q.015,18.589-.015,37.176a28.479,28.479,0,0,1-.889,5.1Zm11.285,10.147c.716.421.3,1.043.434,1.488,0,1.5,0,1.49-1.426,1.25-3.044-.513-6.088-1.032-9.138-1.5-.669-.105-.893-.286-.723-1.022.406-1.777.714-3.57,1.041-5.374.083-.462.188-.6.66-.318q4.56,2.779,9.151,5.49Zm11.34-29.688a1.184,1.184,0,0,1,2.187.1,2.411,2.411,0,0,1,.1.9c0,.9,0,.9-.812.46-.41-.22-.81-.462-1.231-.66s-.415-.447-.248-.783Zm-10.821-5.913a1.1,1.1,0,0,1,1.082-.752,1.127,1.127,0,0,1,1.137.766,2.827,2.827,0,0,1,.092.972v.21c0,.752,0,.752-.66.395-.453-.244-.894-.511-1.359-.729-.428-.18-.44-.489-.295-.849Zm17.913,17.172c.019.583-.133.669-.675.462l-13.095-4.9c-3.968-1.488-7.935-2.986-11.911-4.449a.941.941,0,0,1-.735-1.065c.047-1.24.015-2.482.015-3.724v-3.8c0-.836,0-.84.723-.453l15.329,8.3c3.234,1.753,6.462,3.516,9.707,5.244a1.032,1.032,0,0,1,.641,1.1c-.041,1.094-.038,2.2,0,3.3Z" transform="translate(-12.952 -1649.94)" fill="#07c28f"/>
    <path id="Path_1114" data-name="Path 1114" d="M189.844,1688.67a2.706,2.706,0,0,1,2.443,1.691c.329.752.53,1.548.808,2.317.107.295.019.441-.259.517-.045.013-.092.024-.135.041-1.734.643-1.721.639-2.322-1.1-.133-.387-.083-1.009-.671-1.024s-.554.618-.69,1c-.631,1.781-.614,1.774-2.381,1.127-.376-.141-.46-.295-.323-.661.263-.7.468-1.422.74-2.119A2.8,2.8,0,0,1,189.844,1688.67Z" transform="translate(-153.688 -1681.393)" fill="#07c28f"/>
  </g>
</svg>
