<svg xmlns="http://www.w3.org/2000/svg" width="72" height="72" viewBox="0 0 72 72">
  <g id="Group_242" data-name="Group 242" transform="translate(0)">
    <path id="Path_1124" data-name="Path 1124" d="M83.575,2450.005a1.862,1.862,0,0,1-.94-1.316c-.286-1.255-.639-2.5-.914-3.761a4.034,4.034,0,0,0-1.54-2.359,16.286,16.286,0,0,0-5.761-2.678,51.5,51.5,0,0,0-11.163-1.693c-1.333-.079-2.671-.086-4-.15-.455-.023-.656.113-.737.6a9.779,9.779,0,0,1-1.621,4.006,8.545,8.545,0,0,1-6.583,3.686,11.58,11.58,0,0,1-3.707-.188c-3.978-.94-6.088-3.617-6.914-7.467-.09-.421-.175-.67-.687-.662a71.384,71.384,0,0,0-14.185,1.29,17.755,17.755,0,0,0-5.454,1.982,5.774,5.774,0,0,0-2.97,3.976c-.216,1.149-.564,2.272-.831,3.414a1.792,1.792,0,0,1-.931,1.317h-.688c-.861-.617-.957-.863-.7-1.9.335-1.364.66-2.731,1.019-4.087a7.53,7.53,0,0,1,3.009-4.2,18.574,18.574,0,0,1,7.252-2.9,71.04,71.04,0,0,1,13.969-1.286c1-.011,1-.013,1.027-1.04.024-.869.442-1.362,1.166-1.373s1.2.5,1.232,1.4a23.865,23.865,0,0,0,.147,3.645,6.506,6.506,0,0,0,6.62,5.708,9.621,9.621,0,0,0,2.582-.216,6.654,6.654,0,0,0,5.012-6.453c.041-.888,0-1.781.024-2.671s.468-1.415,1.215-1.411,1.166.5,1.179,1.427c.015,1.114-.109.986,1.036,1.012a61.729,61.729,0,0,1,14.956,1.809,19.393,19.393,0,0,1,6.677,3.032,6.828,6.828,0,0,1,2.789,4.236,19.725,19.725,0,0,0,.963,3.573v.856a.981.981,0,0,1-.844.844Z" transform="translate(-13.117 -2378.009)" fill="#07c28f"/>
    <path id="Path_1125" data-name="Path 1125" d="M132.683,2262.936c0,.94.066,1.881-.015,2.808a3.306,3.306,0,0,1-2.1,2.855,1.316,1.316,0,0,0-.786.886c-.828,2.417-1.644,4.837-2.656,7.183a19.42,19.42,0,0,1-8.849,9.667c-5.977,3.207-13.064,2.058-18.317-2.821a21.665,21.665,0,0,1-5.74-9.041c-.585-1.706-1.219-3.385-1.811-5.1a1.112,1.112,0,0,0-.668-.732,3.5,3.5,0,0,1-2.233-3.363c-.036-1.572-.026-3.141,0-4.711a3.482,3.482,0,0,1,1.881-3.169.9.9,0,0,0,.53-.95,3.624,3.624,0,0,1,.06-.978,1.074,1.074,0,0,1,1.16-.912,1.027,1.027,0,0,1,1.112.88,10.144,10.144,0,0,1,.011,2.942c-.077.589-.529.845-1.08.952-.976.188-1.251.487-1.264,1.45q-.028,2.146,0,4.29c.013.963.325,1.33,1.258,1.459a1.418,1.418,0,0,1,1.192,1.129c.886,2.618,1.781,5.234,2.833,7.792a17.478,17.478,0,0,0,6.485,7.937,13.184,13.184,0,0,0,16.591-1.316,18.7,18.7,0,0,0,5.189-7.661c.786-2.231,1.608-4.45,2.383-6.685a1.531,1.531,0,0,1,1.416-1.236,1.085,1.085,0,0,0,1.044-1.129q.045-2.426,0-4.851a1.15,1.15,0,0,0-1.087-1.175c-.995-.171-1.281-.51-1.3-1.5-.013-.679-.023-1.36.013-2.039a1.164,1.164,0,0,1,1.226-1.247c.675.017,1.1.467,1.162,1.245a2.7,2.7,0,0,1,.009.493,1.061,1.061,0,0,0,.63,1.174,3.474,3.474,0,0,1,1.772,3.156c.013.773,0,1.548,0,2.321Z" transform="translate(-75.122 -2232.942)" fill="#07c28f"/>
    <path id="Path_1126" data-name="Path 1126" d="M102.3,2189.629c0-1.358-.024-2.718,0-4.078a1.185,1.185,0,0,1,1.529-1.25c.7.216.873.78.873,1.44v5.554a6.7,6.7,0,0,1,0,.912c-.087.64.169.952.781,1.179a46.586,46.586,0,0,0,31.938.045,1.153,1.153,0,0,0,.9-1.317c-.053-2.037-.021-4.077-.013-6.116a3.367,3.367,0,0,1,.083-.9,1.172,1.172,0,0,1,2.244,0,3.1,3.1,0,0,1,.085.835c0,2.485-.017,4.969.013,7.454a1.686,1.686,0,0,1-1.177,1.768,45.436,45.436,0,0,1-14.858,3.371,48.357,48.357,0,0,1-18.366-2.287c-1-.327-1.964-.762-2.951-1.128a1.547,1.547,0,0,1-1.091-1.678c.032-1.264,0-2.532,0-3.8Z" transform="translate(-85.514 -2175.862)" fill="#07c28f"/>
    <path id="Path_1127" data-name="Path 1127" d="M183.7,2373.007a6.871,6.871,0,0,1-4.031-1.288,1.248,1.248,0,0,1-.434-1.817c.429-.583,1.1-.645,1.847-.124a4.876,4.876,0,0,0,5.417,0c.752-.508,1.422-.461,1.851.132a1.248,1.248,0,0,1-.444,1.815A7.076,7.076,0,0,1,183.7,2373.007Z" transform="translate(-147.803 -2326.212)" fill="#07c28f"/>
    <path id="Path_1128" data-name="Path 1128" d="M110.18,2151.734a5.968,5.968,0,0,1-1.215-4.563v-2.25c0-1.2-.344-1.578-1.55-1.736q-12.334-1.612-24.671-3.208a12.581,12.581,0,0,0-3.278-.256c-5.55.752-11.1,1.458-16.657,2.18-3.369.438-6.737.867-10.1,1.317-.9.118-1.365.564-1.365,1.234,0,.7.506,1.129,1.431,1.247q2.2.277,4.392.564c6.318.824,12.635,1.667,18.957,2.464a19.508,19.508,0,0,0,4.674.451c4.093-.5,8.178-1.063,12.265-1.6,4.3-.564,8.6-1.115,12.893-1.693.463-.062.636.043.623.529-.026.912-.034,1.828,0,2.742a2.013,2.013,0,0,1-.481,1.4,7.363,7.363,0,0,0-1.911,5.078,3.423,3.423,0,0,0,3.331,3.2,3.485,3.485,0,0,0,3.728-2.654,5.208,5.208,0,0,0-1.061-4.448Zm-15.763-6.75-13.647,1.792a10.952,10.952,0,0,1-2.857-.239q-7.629-.971-15.252-1.977a2.375,2.375,0,0,1-.35-.156c1.025-.145,1.87-.269,2.714-.376l14.695-1.909a10.349,10.349,0,0,1,2.646.231q7.593.965,15.182,1.969a.359.359,0,0,1,.265.209c-1.132.149-2.265.307-3.4.455Zm13.41,11.443c-.841.036-1.27-.412-1.247-1.492a5.1,5.1,0,0,1,.94-2.257c.164-.246.3-.248.465,0a5.257,5.257,0,0,1,.957,2.375A1.11,1.11,0,0,1,107.827,2156.427Z" transform="translate(-44.151 -2139.677)" fill="#07c28f"/>
    <path id="Path_1129" data-name="Path 1129" d="M148.579,2280.358a1.234,1.234,0,0,0-1.813-.107c-.814.592-1.625,1.19-2.415,1.817-.35.276-.5.252-.715-.164a3.476,3.476,0,0,0-3.357-2c-1.266.011-2.533.058-3.8-.011-2.088-.115-3.611.608-4.354,2.658-.013.034-.073.051-.16.107a3.663,3.663,0,0,0-3.95-2.751c-1.36,0-2.718.022-4.078,0a3.531,3.531,0,0,0-3.534,2.069c-.216.436-.391.327-.675.109q-1.17-.9-2.362-1.772c-.724-.532-1.426-.5-1.87.056a1.28,1.28,0,0,0,.442,1.868c1.194.9,2.391,1.811,3.6,2.693a1.734,1.734,0,0,1,.688,1,4.59,4.59,0,0,0,3.675,3.468,15.288,15.288,0,0,0,3.434.1,4.776,4.776,0,0,0,4.45-3.293c.07-.2.036-.463.286-.641.077.241.137.437.2.632a4.787,4.787,0,0,0,4.441,3.3c.82.022,1.64.015,2.46,0a4.736,4.736,0,0,0,4.674-3.636,1.505,1.505,0,0,1,.613-.89q1.868-1.373,3.711-2.782A1.255,1.255,0,0,0,148.579,2280.358Zm-18.946,4.407a2.4,2.4,0,0,1-2.36,2.323c-.818.03-1.64.028-2.458,0a2.36,2.36,0,0,1-2.36-2.377c-.053-1.911-.105-2.532,2.312-2.411.419.021.843,0,1.264,0h0c.771,0,1.544-.015,2.317,0a1.192,1.192,0,0,1,1.288,1.262Q129.664,2284.168,129.633,2284.764Zm11.988-.051a2.379,2.379,0,0,1-2.366,2.377c-.419.017-.843,0-1.264,0h-.28c-2.445.188-3.5-1.063-3.273-3.6a1.176,1.176,0,0,1,1.223-1.185q2.387-.032,4.775,0a1.126,1.126,0,0,1,1.183,1.206C141.639,2283.916,141.635,2284.315,141.622,2284.714Z" transform="translate(-96.043 -2253.508)" fill="#07c28f"/>
  </g>
</svg>
