<svg xmlns="http://www.w3.org/2000/svg" width="88.575" height="72" viewBox="0 0 88.575 72">
  <g id="Group_241" data-name="Group 241" transform="translate(0)">
    <path id="Path_1130" data-name="Path 1130" d="M26.721,2886.875H21.71c-1.258,0-2.032-.694-2.012-1.75a1.786,1.786,0,0,1,2-1.7q5.054-.021,10.109,0a1.8,1.8,0,0,1,2.021,1.771c-.023,1.029-.807,1.674-2.007,1.681C30.12,2886.884,28.42,2886.875,26.721,2886.875Z" transform="translate(-18.129 -2827.865)" fill="#07c28f"/>
    <path id="Path_1131" data-name="Path 1131" d="M46.931,2699.219c1.124,0,2.245-.014,3.369,0a1.71,1.71,0,0,1,1.878,1.695,1.693,1.693,0,0,1-1.836,1.75q-3.542.039-7.082,0a1.729,1.729,0,1,1,.049-3.445C44.512,2699.206,45.721,2699.219,46.931,2699.219Z" transform="translate(-34.82 -2686.254)" fill="#07c28f"/>
    <path id="Path_1132" data-name="Path 1132" d="M15.894,2702.844a1.7,1.7,0,1,1,1.69-1.7A1.711,1.711,0,0,1,15.894,2702.844Z" transform="translate(-13.894 -2686.436)" fill="#07c28f"/>
    <path id="Path_1133" data-name="Path 1133" d="M202.485,2675.568a36.8,36.8,0,0,0-.946-5.357,36.006,36.006,0,0,0-48.168-24.51,34.538,34.538,0,0,0-6.937,3.686,1.743,1.743,0,1,0,1.915,2.881l.289-.192a31.356,31.356,0,0,1,5.873-3.108,24.031,24.031,0,0,1,4.194-1.334c-.16.261-.231.386-.305.5-4.065,5.734-5.718,12.331-6.782,19.126a1.667,1.667,0,0,0,1.436,2.081,1.74,1.74,0,0,0,1.972-1.619c.132-.677.231-1.364.347-2.044.368-1.945.372-1.942,2.312-1.942h19.029c.474,0,.883-.039,1.013.617a79.287,79.287,0,0,1,1.387,12.361c.018.527-.153.712-.682.694-1.269-.03-2.543-.016-3.806,0s-2.06.673-2.081,1.709.777,1.737,2.028,1.746c1.212.011,2.426.044,3.632-.012.731-.035.925.2.9.925a80.949,80.949,0,0,1-1.362,12.023c-.111.564-.328.761-.9.754-2.479-.025-4.96-.014-7.438,0-1.341,0-2.1.659-2.081,1.769.021,1.07.758,1.681,2.081,1.686,2.19,0,4.393.019,6.574,0,.6,0,.735.153.553.733a37.41,37.41,0,0,1-2.883,7.027,14.336,14.336,0,0,1-3.7,4.625,5.217,5.217,0,0,1-3.237,1.253c-2.039,0-3.45-1.156-4.71-2.543a21.5,21.5,0,0,1-3.653-6.139,53.8,53.8,0,0,1-3.445-13.18c-.18-1.23-1-1.94-2.014-1.769a1.8,1.8,0,0,0-1.4,2.292c.31,1.85.6,3.7,1.01,5.524,1.156,5.182,2.835,10.157,6.012,14.507.046.063.088.15-.067.25a31.522,31.522,0,0,1-10.208-4.625,12.015,12.015,0,0,0-1.3-.851,1.644,1.644,0,0,0-2.081.506,1.693,1.693,0,0,0,.076,2.15,4.1,4.1,0,0,0,.731.6,35.376,35.376,0,0,0,29.1,5.832,35.874,35.874,0,0,0,27.409-29.164,11.675,11.675,0,0,1,.483-2.774v-6.053C202.439,2676.037,202.51,2675.788,202.485,2675.568Zm-26.475-15.261c-3.11-.014-6.222,0-9.332,0-3.052,0-6.1-.014-9.159.011-.666,0-.925-.09-.677-.839a33.744,33.744,0,0,1,3.8-8.483,11.736,11.736,0,0,1,3.237-3.427,4.686,4.686,0,0,1,5.579,0,11.759,11.759,0,0,1,3.288,3.5,33.551,33.551,0,0,1,3.8,8.578c.192.59-.018.654-.534.652Zm-1.334-12.521c4.592-.111,15.832,7.529,18.345,12.507h-9.868c-.925,0-2.019.342-2.708-.139s-.613-1.619-.888-2.46A33.082,33.082,0,0,0,174.676,2647.787Zm.116,62.735a34.493,34.493,0,0,0,3.882-7.413q.832-2.18,1.457-4.43c.106-.386.213-.677.719-.675,3.977.021,7.952.016,11.929.023a1.457,1.457,0,0,1,.3.113,31.836,31.836,0,0,1-18.273,12.382Zm24.278-28.808a32.6,32.6,0,0,1-3.387,12.144,1.072,1.072,0,0,1-1.112.708q-6.264-.042-12.525,0c-.747,0-.925-.176-.77-.925a71.82,71.82,0,0,0,1.262-11.832c.018-.694.192-.941.925-.925,2.476.044,4.953.019,7.429.019s4.953.021,7.429-.014c.689-.028.821.159.77.825Zm-.675-4.282c-2.543-.023-5.075,0-7.612,0-2.481,0-4.96-.019-7.441,0-.6,0-.782-.183-.8-.782a72.664,72.664,0,0,0-1.295-12.109c-.127-.641.062-.8.677-.8q6.361.027,12.717,0a1.023,1.023,0,0,1,1.031.693,32.549,32.549,0,0,1,3.406,12.255c.065.59-.095.745-.664.74Z" transform="translate(-114.076 -2643.166)" fill="#07c28f"/>
    <path id="Path_1134" data-name="Path 1134" d="M66.648,2720.868a14.245,14.245,0,0,0-9.61-5.262,61.975,61.975,0,0,0-7-.106,1.16,1.16,0,0,1-1.272-.842c-1.905-4.668-3.866-9.313-5.781-13.979a2.11,2.11,0,0,0-2.234-1.5c-1.85.053-3.7,0-5.535.014-1.732,0-2.266.534-2.268,2.278,0,4.393-.014,8.763,0,13.145,0,.694-.21.9-.886.881-1.584-.042-3.172-.032-4.756,0a1.353,1.353,0,0,1-1.179-.555c-1.239-1.519-2.511-3.006-3.757-4.523a2.164,2.164,0,0,0-1.8-.842c-1.815.019-3.632,0-5.448,0-2.023,0-2.742,1.246-1.741,3.017q2.535,4.477,5.087,8.937a1.156,1.156,0,0,1,0,1.339q-2.6,4.488-5.142,9.018c-.943,1.669-.213,2.946,1.683,2.953,1.817,0,3.632-.016,5.45,0a2.293,2.293,0,0,0,1.949-.9c1.221-1.5,2.481-2.962,3.7-4.458a1.349,1.349,0,0,1,1.172-.562c1.586.03,3.172.037,4.756,0,.666-.016.909.176.9.872-.039,2.25-.016,4.5-.014,6.747s0,4.439,0,6.659c0,1.445.608,2.03,2.081,2.037h5.535c1.568,0,1.882-.206,2.474-1.633,1.915-4.6,3.838-9.2,5.72-13.815a1.192,1.192,0,0,1,1.336-.872q2.682.074,5.362,0a14.435,14.435,0,0,0,11.173-5.353A1.753,1.753,0,0,0,66.648,2720.868Zm-29.467-18.229a19.68,19.68,0,0,0,2.245,0c.495-.025.694.192.881.62q2.37,5.748,4.777,11.478c.231.564.153.758-.49.752-2.476-.023-4.953-.028-7.429,0-.636,0-.768-.257-.761-.821.023-1.871,0-3.743,0-5.616s.018-3.743,0-5.614c-.012-.585.157-.835.777-.8Zm7.892,27.069q-2.4,5.695-4.738,11.411a.912.912,0,0,1-1.031.666,21.1,21.1,0,0,0-2.16,0c-.576.03-.747-.2-.74-.754.023-1.9,0-3.8,0-5.706s.018-3.746,0-5.619c0-.606.2-.8.8-.791q3.672.037,7.348,0C45.225,2728.906,45.332,2729.1,45.073,2729.708ZM62.2,2723.1a11.216,11.216,0,0,1-7.073,2.368c-9.57,0-19.138.014-28.706-.021a2.721,2.721,0,0,0-2.363,1.122c-1.034,1.313-2.171,2.543-3.184,3.873a1.986,1.986,0,0,1-2.035.939,8.873,8.873,0,0,0-1.214,0c1.484-2.606,2.809-5.064,4.268-7.438a2.894,2.894,0,0,0,.023-3.422c-1.367-2.2-2.576-4.5-3.882-6.74-.335-.576-.3-.694.416-.765a2.63,2.63,0,0,1,2.622,1.188c.987,1.343,2.134,2.571,3.186,3.871a2.3,2.3,0,0,0,1.949.886c9.626-.021,19.251,0,28.877-.016a11.3,11.3,0,0,1,7.085,2.34C63.325,2722.161,63.323,2722.23,62.2,2723.1Z" transform="translate(-12.913 -2686.224)" fill="#07c28f"/>
  </g>
</svg>
