<svg xmlns="http://www.w3.org/2000/svg" width="42.656" height="34.125" viewBox="0 0 42.656 34.125">
  <path id="Icon_awesome-car-alt" data-name="Icon awesome-car-alt" d="M38.982,17.682l-1-2.5-1.771-4.428A9.9,9.9,0,0,0,26.971,4.5H15.685a9.906,9.906,0,0,0-9.241,6.256L4.673,15.184l-1,2.5A5.675,5.675,0,0,0,0,22.984V27.25a5.641,5.641,0,0,0,1.422,3.726v4.805a2.844,2.844,0,0,0,2.844,2.844H7.109a2.844,2.844,0,0,0,2.844-2.844V32.937H32.7v2.844a2.844,2.844,0,0,0,2.844,2.844h2.844a2.844,2.844,0,0,0,2.844-2.844V30.976a5.638,5.638,0,0,0,1.422-3.726V22.984A5.675,5.675,0,0,0,38.982,17.682ZM11.724,12.869a4.266,4.266,0,0,1,3.961-2.681H26.971a4.266,4.266,0,0,1,3.961,2.681L32.7,17.3H9.953l1.771-4.428ZM7.109,27.232A2.683,2.683,0,0,1,4.266,24.4a2.683,2.683,0,0,1,2.844-2.835c1.706,0,4.266,2.551,4.266,4.252S8.816,27.232,7.109,27.232Zm28.437,0c-1.706,0-4.266.283-4.266-1.417s2.559-4.252,4.266-4.252A2.683,2.683,0,0,1,38.391,24.4a2.683,2.683,0,0,1-2.844,2.835Z" transform="translate(0 -4.5)" fill="#1a2364"/>
</svg>
