<svg xmlns="http://www.w3.org/2000/svg" width="34.104" height="30.653" viewBox="0 0 34.104 30.653">
  <g id="healthcare" transform="translate(0 -25.905)">
    <path id="Path_124" data-name="Path 124" d="M.666,297.654H6.395a.666.666,0,0,0,.666-.666v-.651a14.22,14.22,0,0,1,5.081,1.27,15.146,15.146,0,0,0,6.242,1.38A18.464,18.464,0,0,0,23.8,297.76a.666.666,0,1,0-.433-1.26,17.329,17.329,0,0,1-4.978,1.154,13.845,13.845,0,0,1-5.747-1.285A15.469,15.469,0,0,0,7.061,295v-6.768a8.206,8.206,0,0,0,1.3-.51c1.313-.6,2.8-1.279,4.841-.131l3.216,1.809a2,2,0,0,0,.98.257h4.314a1.332,1.332,0,0,1,.481,2.574,1.312,1.312,0,0,1-.481.09H14.943a.666.666,0,1,0,0,1.332h6.772a2.637,2.637,0,0,0,.938-.171l.016-.005,8.289-3.064a1.333,1.333,0,0,1,1.053,2.447l-.449.215-.193-.385a.666.666,0,0,0-1.192.6l.177.354c-.436.2-.932.424-1.474.662a.666.666,0,0,0,.537,1.219c1.31-.577,2.177-.986,3.162-1.457a2.665,2.665,0,0,0-2.1-4.9l-6.141,2.27a2.622,2.622,0,0,0,.039-.45,2.667,2.667,0,0,0-2.664-2.664H17.4a.667.667,0,0,1-.327-.086l-3.216-1.809c-2.63-1.479-4.605-.578-6.047.08A4.14,4.14,0,0,1,6.395,287H.666a.666.666,0,0,0-.666.666v9.325a.666.666,0,0,0,.666.666Zm.666-9.325h4.4v7.993h-4.4Z" transform="translate(0 -242.428)" fill="#1a2364"/>
    <path id="Path_125" data-name="Path 125" d="M195.656,43.127a.666.666,0,0,0,.732,0c9.771-6.429,10.093-11.185,9.415-13.448a5.438,5.438,0,0,0-5.12-3.773,6.159,6.159,0,0,0-4.661,2.23,6.159,6.159,0,0,0-4.661-2.23,5.439,5.439,0,0,0-5.117,3.78C185.567,31.946,185.889,36.7,195.656,43.127Zm-8.136-13.06a4.134,4.134,0,0,1,3.841-2.83,5.03,5.03,0,0,1,4.087,2.349.666.666,0,0,0,1.149,0,5.076,5.076,0,0,1,4.086-2.347,4.133,4.133,0,0,1,3.843,2.823c.454,1.516.515,5.666-8.5,11.71-9.016-6.043-8.955-10.189-8.5-11.7Z" transform="translate(-173.633)" fill="#1a2364"/>
    <path id="Path_126" data-name="Path 126" d="M286.666,110.092h2v2a.666.666,0,1,0,1.332,0v-2h2a.666.666,0,0,0,0-1.332h-2v-2a.666.666,0,1,0-1.332,0v2h-2a.666.666,0,0,0,0,1.332Z" transform="translate(-266.95 -74.849)" fill="#1a2364"/>
    <circle id="Ellipse_44" data-name="Ellipse 44" cx="0.666" cy="0.666" r="0.666" transform="translate(25.711 52.961)" fill="#1a2364"/>
  </g>
</svg>
