<svg xmlns="http://www.w3.org/2000/svg" width="41.789" height="31.341" viewBox="0 0 41.789 31.341">
  <path id="Icon_awesome-plane-departure" data-name="Icon awesome-plane-departure" d="M40.743,29.412H1.045A1.044,1.044,0,0,0,0,30.457v2.089a1.044,1.044,0,0,0,1.045,1.045h39.7a1.044,1.044,0,0,0,1.045-1.045V30.457A1.044,1.044,0,0,0,40.743,29.412ZM5.259,22.443a2.154,2.154,0,0,0,1.589.7l8.523-.012a4.285,4.285,0,0,0,1.935-.465l19-9.641A11.1,11.1,0,0,0,40.68,9.218c1.2-1.86,1.325-3.205.853-4.156s-1.615-1.65-3.8-1.792A10.968,10.968,0,0,0,32.1,4.542L25.665,7.806,11.385,2.448a1.162,1.162,0,0,0-1.175-.072L5.917,4.554a1.193,1.193,0,0,0-.338,1.863l10.2,6.405-6.739,3.42L4.317,13.861a1.162,1.162,0,0,0-1.049,0l-2.62,1.33a1.194,1.194,0,0,0-.364,1.833Z" transform="translate(0 -2.249)" fill="#1a2364"/>
</svg>
