<svg xmlns="http://www.w3.org/2000/svg" xmlns:xlink="http://www.w3.org/1999/xlink" width="76" height="79" viewBox="0 0 76 79">
  <defs>
    <linearGradient id="linear-gradient" x1="1" x2="0.046" y2="1" gradientUnits="objectBoundingBox">
      <stop offset="0" stop-color="#0872b9"/>
      <stop offset="1" stop-color="#04395d"/>
    </linearGradient>
  </defs>
  <g id="Group_300" data-name="Group 300" transform="translate(-1372 -1176)">
    <path id="Path_121" data-name="Path 121" d="M9,0H67a9,9,0,0,1,9,9V70a9,9,0,0,1-9,9H9a9,9,0,0,1-9-9V9A9,9,0,0,1,9,0Z" transform="translate(1372 1176)" fill="url(#linear-gradient)"/>
    <path id="Icon_awesome-car" data-name="Icon awesome-car" d="M54.329,16.67H47.824l-1.808-4.52a12.108,12.108,0,0,0-11.3-7.65h-13.8a12.112,12.112,0,0,0-11.3,7.65L7.809,16.67H1.3A1.3,1.3,0,0,0,.04,18.29L.692,20.9a1.3,1.3,0,0,0,1.265.988H4.138a6.906,6.906,0,0,0-2.4,5.216v5.216a6.9,6.9,0,0,0,1.739,4.556v5.875a3.478,3.478,0,0,0,3.477,3.477h3.477a3.478,3.478,0,0,0,3.477-3.477V39.272H41.726v3.477A3.478,3.478,0,0,0,45.2,46.226H48.68a3.478,3.478,0,0,0,3.477-3.477V36.873A6.893,6.893,0,0,0,53.9,32.317V27.1a6.908,6.908,0,0,0-2.4-5.216h2.181a1.3,1.3,0,0,0,1.265-.988L55.6,18.29a1.3,1.3,0,0,0-1.266-1.62ZM16.074,14.733a5.216,5.216,0,0,1,4.843-3.278h13.8a5.216,5.216,0,0,1,4.843,3.278l2.166,5.415H13.908l2.166-5.415ZM10.431,32.3a3.28,3.28,0,0,1-3.477-3.466,3.28,3.28,0,0,1,3.477-3.466c2.086,0,5.216,3.12,5.216,5.2S12.518,32.3,10.431,32.3Zm34.772,0c-2.086,0-5.216.347-5.216-1.733s3.129-5.2,5.216-5.2a3.28,3.28,0,0,1,3.477,3.466A3.28,3.28,0,0,1,45.2,32.3Z" transform="translate(1382.183 1189.254)" fill="#fff"/>
  </g>
</svg>
