<svg xmlns="http://www.w3.org/2000/svg" xmlns:xlink="http://www.w3.org/1999/xlink" width="76" height="79" viewBox="0 0 76 79">
  <defs>
    <linearGradient id="linear-gradient" x1="1" y1="0.064" x2="0.054" y2="0.927" gradientUnits="objectBoundingBox">
      <stop offset="0" stop-color="#ff3f03"/>
      <stop offset="1" stop-color="#802002"/>
    </linearGradient>
  </defs>
  <g id="Group_299" data-name="Group 299" transform="translate(-1043 -981)">
    <path id="Path_123" data-name="Path 123" d="M9,0H67a9,9,0,0,1,9,9V70a9,9,0,0,1-9,9H9a9,9,0,0,1-9-9V9A9,9,0,0,1,9,0Z" transform="translate(1043 981)" fill="url(#linear-gradient)"/>
    <g id="healthcare" transform="translate(1052.999 969.428)">
      <path id="Path_124" data-name="Path 124" d="M1.094,305.372H10.5a1.094,1.094,0,0,0,1.094-1.094v-1.069a23.349,23.349,0,0,1,8.344,2.085,24.871,24.871,0,0,0,10.25,2.266,30.32,30.32,0,0,0,8.886-2.013,1.094,1.094,0,1,0-.712-2.068,28.457,28.457,0,0,1-8.175,1.894,22.735,22.735,0,0,1-9.438-2.109,25.4,25.4,0,0,0-9.156-2.242V289.908a13.469,13.469,0,0,0,2.141-.837c2.156-.984,4.6-2.1,7.949-.215l5.28,2.97a3.287,3.287,0,0,0,1.61.422h7.083a2.187,2.187,0,0,1,.789,4.227,2.154,2.154,0,0,1-.789.148H24.538a1.094,1.094,0,1,0,0,2.188H35.657a4.33,4.33,0,0,0,1.541-.281l.026-.008,13.61-5.031a2.188,2.188,0,0,1,1.729,4.018c-.187.09-.375.181-.737.354l-.316-.633a1.094,1.094,0,0,0-1.957.978l.291.581c-.716.329-1.53.7-2.42,1.088a1.094,1.094,0,0,0,.881,2c2.152-.947,3.576-1.619,5.192-2.392a4.376,4.376,0,0,0-3.447-8.038l-10.084,3.727a4.305,4.305,0,0,0,.065-.739,4.38,4.38,0,0,0-4.375-4.375H28.574a1.1,1.1,0,0,1-.537-.141l-5.281-2.971c-4.319-2.429-7.562-.949-9.93.132a6.8,6.8,0,0,1-2.326.792H1.094A1.094,1.094,0,0,0,0,288.966v15.313a1.094,1.094,0,0,0,1.094,1.094Zm1.094-15.313H9.407v13.125H2.188Z" transform="translate(0 -231.32)" fill="#fff"/>
      <path id="Path_125" data-name="Path 125" d="M201.84,54.184a1.094,1.094,0,0,0,1.2,0C219.087,43.628,219.616,35.817,218.5,32.1a8.929,8.929,0,0,0-8.407-6.2,10.114,10.114,0,0,0-7.654,3.663,10.113,10.113,0,0,0-7.653-3.663,8.931,8.931,0,0,0-8.4,6.206C185.273,35.825,185.8,43.631,201.84,54.184ZM188.481,32.739a6.789,6.789,0,0,1,6.307-4.646A8.26,8.26,0,0,1,201.5,31.95a1.094,1.094,0,0,0,1.887,0,8.335,8.335,0,0,1,6.71-3.854,6.787,6.787,0,0,1,6.311,4.636c.746,2.49.846,9.3-13.965,19.229-14.8-9.922-14.705-16.731-13.96-19.218Z" transform="translate(-165.678)" fill="#fff"/>
      <path id="Path_126" data-name="Path 126" d="M287.094,112.658h3.281v3.281a1.094,1.094,0,1,0,2.188,0v-3.281h3.281a1.094,1.094,0,0,0,0-2.188h-3.281v-3.281a1.094,1.094,0,1,0-2.188,0v3.281h-3.281a1.094,1.094,0,0,0,0,2.188Z" transform="translate(-254.718 -71.419)" fill="#fff"/>
      <circle id="Ellipse_44" data-name="Ellipse 44" cx="1.094" cy="1.094" r="1.094" transform="translate(42.22 70.333)" fill="#fff"/>
    </g>
  </g>
</svg>
